<mxfile host="Electron" agent="Mozilla/5.0 (Windows NT 10.0; Win64; x64) AppleWebKit/537.36 (KHTML, like Gecko) draw.io/24.7.17 Chrome/128.0.6613.36 Electron/32.0.1 Safari/537.36" version="24.7.17">
  <diagram name="Page-1" id="6NFR0LjrflYC-w5fdQ8j">
    <mxGraphModel dx="1680" dy="1586" grid="1" gridSize="10" guides="1" tooltips="1" connect="1" arrows="1" fold="1" page="1" pageScale="1" pageWidth="850" pageHeight="1100" math="0" shadow="0">
      <root>
        <mxCell id="0" />
        <mxCell id="1" parent="0" />
        <mxCell id="sO85G-yIJ7SmOh7d06e6-74" value="" style="rounded=1;whiteSpace=wrap;html=1;fillColor=none;dashed=1;" vertex="1" parent="1">
          <mxGeometry x="-40" y="-40" width="620" height="200" as="geometry" />
        </mxCell>
        <mxCell id="sO85G-yIJ7SmOh7d06e6-75" value="Base" style="text;html=1;align=left;verticalAlign=middle;whiteSpace=wrap;rounded=0;" vertex="1" parent="1">
          <mxGeometry x="-10" y="-40" width="510" height="30" as="geometry" />
        </mxCell>
        <mxCell id="sO85G-yIJ7SmOh7d06e6-1" value="" style="rounded=1;whiteSpace=wrap;html=1;fillColor=default;absoluteArcSize=1;arcSize=36;" vertex="1" parent="1">
          <mxGeometry y="22" width="330" height="36" as="geometry" />
        </mxCell>
        <mxCell id="sO85G-yIJ7SmOh7d06e6-4" value="" style="rounded=0;whiteSpace=wrap;html=1;dashed=1;fillColor=none;" vertex="1" parent="1">
          <mxGeometry width="502" height="80" as="geometry" />
        </mxCell>
        <mxCell id="sO85G-yIJ7SmOh7d06e6-5" value="" style="endArrow=none;html=1;rounded=0;" edge="1" parent="1">
          <mxGeometry width="50" height="50" relative="1" as="geometry">
            <mxPoint x="312" y="35" as="sourcePoint" />
            <mxPoint x="312" y="45" as="targetPoint" />
          </mxGeometry>
        </mxCell>
        <mxCell id="sO85G-yIJ7SmOh7d06e6-6" value="" style="endArrow=none;html=1;rounded=0;" edge="1" parent="1">
          <mxGeometry width="50" height="50" relative="1" as="geometry">
            <mxPoint x="307" y="40" as="sourcePoint" />
            <mxPoint x="317" y="40" as="targetPoint" />
          </mxGeometry>
        </mxCell>
        <mxCell id="sO85G-yIJ7SmOh7d06e6-7" value="" style="endArrow=none;html=1;rounded=0;" edge="1" parent="1">
          <mxGeometry width="50" height="50" relative="1" as="geometry">
            <mxPoint x="18" y="35" as="sourcePoint" />
            <mxPoint x="18" y="45" as="targetPoint" />
          </mxGeometry>
        </mxCell>
        <mxCell id="sO85G-yIJ7SmOh7d06e6-8" value="" style="endArrow=none;html=1;rounded=0;" edge="1" parent="1">
          <mxGeometry width="50" height="50" relative="1" as="geometry">
            <mxPoint x="13" y="39.950000000000045" as="sourcePoint" />
            <mxPoint x="23" y="39.950000000000045" as="targetPoint" />
          </mxGeometry>
        </mxCell>
        <mxCell id="sO85G-yIJ7SmOh7d06e6-9" value="" style="ellipse;whiteSpace=wrap;html=1;aspect=fixed;fillColor=default;" vertex="1" parent="1">
          <mxGeometry x="196" width="80" height="80" as="geometry" />
        </mxCell>
        <mxCell id="sO85G-yIJ7SmOh7d06e6-10" value="0" style="text;html=1;align=center;verticalAlign=middle;whiteSpace=wrap;rounded=0;fontSize=10;" vertex="1" parent="1">
          <mxGeometry x="-10" y="-10" width="10" height="10" as="geometry" />
        </mxCell>
        <mxCell id="sO85G-yIJ7SmOh7d06e6-14" value="" style="endArrow=none;html=1;rounded=0;" edge="1" parent="1">
          <mxGeometry width="50" height="50" relative="1" as="geometry">
            <mxPoint x="235.95" y="35" as="sourcePoint" />
            <mxPoint x="235.95" y="45" as="targetPoint" />
          </mxGeometry>
        </mxCell>
        <mxCell id="sO85G-yIJ7SmOh7d06e6-15" value="" style="endArrow=none;html=1;rounded=0;" edge="1" parent="1">
          <mxGeometry width="50" height="50" relative="1" as="geometry">
            <mxPoint x="231" y="39.950000000000045" as="sourcePoint" />
            <mxPoint x="241" y="39.950000000000045" as="targetPoint" />
          </mxGeometry>
        </mxCell>
        <mxCell id="sO85G-yIJ7SmOh7d06e6-17" value="" style="rounded=0;whiteSpace=wrap;html=1;dashed=1;fillColor=none;" vertex="1" parent="1">
          <mxGeometry x="334" width="82" height="80" as="geometry" />
        </mxCell>
        <mxCell id="sO85G-yIJ7SmOh7d06e6-18" value="" style="rounded=1;whiteSpace=wrap;html=1;fillColor=none;absoluteArcSize=1;arcSize=26;imageHeight=24;" vertex="1" parent="1">
          <mxGeometry x="334" width="82" height="38" as="geometry" />
        </mxCell>
        <mxCell id="sO85G-yIJ7SmOh7d06e6-27" value="" style="endArrow=none;html=1;rounded=0;" edge="1" parent="1">
          <mxGeometry width="50" height="50" relative="1" as="geometry">
            <mxPoint x="347" y="8" as="sourcePoint" />
            <mxPoint x="347" y="18" as="targetPoint" />
          </mxGeometry>
        </mxCell>
        <mxCell id="sO85G-yIJ7SmOh7d06e6-28" value="" style="endArrow=none;html=1;rounded=0;" edge="1" parent="1">
          <mxGeometry width="50" height="50" relative="1" as="geometry">
            <mxPoint x="342" y="13" as="sourcePoint" />
            <mxPoint x="352" y="13" as="targetPoint" />
          </mxGeometry>
        </mxCell>
        <mxCell id="sO85G-yIJ7SmOh7d06e6-29" value="" style="endArrow=none;html=1;rounded=0;" edge="1" parent="1">
          <mxGeometry width="50" height="50" relative="1" as="geometry">
            <mxPoint x="347" y="20" as="sourcePoint" />
            <mxPoint x="347" y="30" as="targetPoint" />
          </mxGeometry>
        </mxCell>
        <mxCell id="sO85G-yIJ7SmOh7d06e6-30" value="" style="endArrow=none;html=1;rounded=0;" edge="1" parent="1">
          <mxGeometry width="50" height="50" relative="1" as="geometry">
            <mxPoint x="342" y="25" as="sourcePoint" />
            <mxPoint x="352" y="25" as="targetPoint" />
          </mxGeometry>
        </mxCell>
        <mxCell id="sO85G-yIJ7SmOh7d06e6-31" value="" style="endArrow=none;html=1;rounded=0;" edge="1" parent="1">
          <mxGeometry width="50" height="50" relative="1" as="geometry">
            <mxPoint x="403" y="8" as="sourcePoint" />
            <mxPoint x="403" y="18" as="targetPoint" />
          </mxGeometry>
        </mxCell>
        <mxCell id="sO85G-yIJ7SmOh7d06e6-32" value="" style="endArrow=none;html=1;rounded=0;" edge="1" parent="1">
          <mxGeometry width="50" height="50" relative="1" as="geometry">
            <mxPoint x="398" y="13" as="sourcePoint" />
            <mxPoint x="408" y="13" as="targetPoint" />
          </mxGeometry>
        </mxCell>
        <mxCell id="sO85G-yIJ7SmOh7d06e6-33" value="" style="endArrow=none;html=1;rounded=0;" edge="1" parent="1">
          <mxGeometry width="50" height="50" relative="1" as="geometry">
            <mxPoint x="403" y="20" as="sourcePoint" />
            <mxPoint x="403" y="30" as="targetPoint" />
          </mxGeometry>
        </mxCell>
        <mxCell id="sO85G-yIJ7SmOh7d06e6-34" value="" style="endArrow=none;html=1;rounded=0;" edge="1" parent="1">
          <mxGeometry width="50" height="50" relative="1" as="geometry">
            <mxPoint x="398" y="25" as="sourcePoint" />
            <mxPoint x="408" y="25" as="targetPoint" />
          </mxGeometry>
        </mxCell>
        <mxCell id="sO85G-yIJ7SmOh7d06e6-36" value="" style="rounded=1;whiteSpace=wrap;html=1;fillColor=none;absoluteArcSize=1;arcSize=26;imageHeight=24;" vertex="1" parent="1">
          <mxGeometry x="334" y="42" width="82" height="38" as="geometry" />
        </mxCell>
        <mxCell id="sO85G-yIJ7SmOh7d06e6-37" value="" style="endArrow=none;html=1;rounded=0;" edge="1" parent="1">
          <mxGeometry width="50" height="50" relative="1" as="geometry">
            <mxPoint x="347" y="50" as="sourcePoint" />
            <mxPoint x="347" y="60" as="targetPoint" />
          </mxGeometry>
        </mxCell>
        <mxCell id="sO85G-yIJ7SmOh7d06e6-38" value="" style="endArrow=none;html=1;rounded=0;" edge="1" parent="1">
          <mxGeometry width="50" height="50" relative="1" as="geometry">
            <mxPoint x="342" y="55" as="sourcePoint" />
            <mxPoint x="352" y="55" as="targetPoint" />
          </mxGeometry>
        </mxCell>
        <mxCell id="sO85G-yIJ7SmOh7d06e6-39" value="" style="endArrow=none;html=1;rounded=0;" edge="1" parent="1">
          <mxGeometry width="50" height="50" relative="1" as="geometry">
            <mxPoint x="347" y="62" as="sourcePoint" />
            <mxPoint x="347" y="72" as="targetPoint" />
          </mxGeometry>
        </mxCell>
        <mxCell id="sO85G-yIJ7SmOh7d06e6-40" value="" style="endArrow=none;html=1;rounded=0;" edge="1" parent="1">
          <mxGeometry width="50" height="50" relative="1" as="geometry">
            <mxPoint x="342" y="67" as="sourcePoint" />
            <mxPoint x="352" y="67" as="targetPoint" />
          </mxGeometry>
        </mxCell>
        <mxCell id="sO85G-yIJ7SmOh7d06e6-41" value="" style="endArrow=none;html=1;rounded=0;" edge="1" parent="1">
          <mxGeometry width="50" height="50" relative="1" as="geometry">
            <mxPoint x="403" y="50" as="sourcePoint" />
            <mxPoint x="403" y="60" as="targetPoint" />
          </mxGeometry>
        </mxCell>
        <mxCell id="sO85G-yIJ7SmOh7d06e6-42" value="" style="endArrow=none;html=1;rounded=0;" edge="1" parent="1">
          <mxGeometry width="50" height="50" relative="1" as="geometry">
            <mxPoint x="398" y="55" as="sourcePoint" />
            <mxPoint x="408" y="55" as="targetPoint" />
          </mxGeometry>
        </mxCell>
        <mxCell id="sO85G-yIJ7SmOh7d06e6-43" value="" style="endArrow=none;html=1;rounded=0;" edge="1" parent="1">
          <mxGeometry width="50" height="50" relative="1" as="geometry">
            <mxPoint x="403" y="62" as="sourcePoint" />
            <mxPoint x="403" y="72" as="targetPoint" />
          </mxGeometry>
        </mxCell>
        <mxCell id="sO85G-yIJ7SmOh7d06e6-44" value="" style="endArrow=none;html=1;rounded=0;" edge="1" parent="1">
          <mxGeometry width="50" height="50" relative="1" as="geometry">
            <mxPoint x="398" y="67" as="sourcePoint" />
            <mxPoint x="408" y="67" as="targetPoint" />
          </mxGeometry>
        </mxCell>
        <mxCell id="sO85G-yIJ7SmOh7d06e6-55" value="" style="rounded=0;whiteSpace=wrap;html=1;dashed=1;fillColor=none;" vertex="1" parent="1">
          <mxGeometry x="420" width="82" height="80" as="geometry" />
        </mxCell>
        <mxCell id="sO85G-yIJ7SmOh7d06e6-56" value="" style="rounded=1;whiteSpace=wrap;html=1;fillColor=none;absoluteArcSize=1;arcSize=26;imageHeight=24;" vertex="1" parent="1">
          <mxGeometry x="420" width="82" height="38" as="geometry" />
        </mxCell>
        <mxCell id="sO85G-yIJ7SmOh7d06e6-57" value="" style="endArrow=none;html=1;rounded=0;" edge="1" parent="1">
          <mxGeometry width="50" height="50" relative="1" as="geometry">
            <mxPoint x="433" y="8" as="sourcePoint" />
            <mxPoint x="433" y="18" as="targetPoint" />
          </mxGeometry>
        </mxCell>
        <mxCell id="sO85G-yIJ7SmOh7d06e6-58" value="" style="endArrow=none;html=1;rounded=0;" edge="1" parent="1">
          <mxGeometry width="50" height="50" relative="1" as="geometry">
            <mxPoint x="428" y="13" as="sourcePoint" />
            <mxPoint x="438" y="13" as="targetPoint" />
          </mxGeometry>
        </mxCell>
        <mxCell id="sO85G-yIJ7SmOh7d06e6-59" value="" style="endArrow=none;html=1;rounded=0;" edge="1" parent="1">
          <mxGeometry width="50" height="50" relative="1" as="geometry">
            <mxPoint x="433" y="20" as="sourcePoint" />
            <mxPoint x="433" y="30" as="targetPoint" />
          </mxGeometry>
        </mxCell>
        <mxCell id="sO85G-yIJ7SmOh7d06e6-60" value="" style="endArrow=none;html=1;rounded=0;" edge="1" parent="1">
          <mxGeometry width="50" height="50" relative="1" as="geometry">
            <mxPoint x="428" y="25" as="sourcePoint" />
            <mxPoint x="438" y="25" as="targetPoint" />
          </mxGeometry>
        </mxCell>
        <mxCell id="sO85G-yIJ7SmOh7d06e6-61" value="" style="endArrow=none;html=1;rounded=0;" edge="1" parent="1">
          <mxGeometry width="50" height="50" relative="1" as="geometry">
            <mxPoint x="489" y="8" as="sourcePoint" />
            <mxPoint x="489" y="18" as="targetPoint" />
          </mxGeometry>
        </mxCell>
        <mxCell id="sO85G-yIJ7SmOh7d06e6-62" value="" style="endArrow=none;html=1;rounded=0;" edge="1" parent="1">
          <mxGeometry width="50" height="50" relative="1" as="geometry">
            <mxPoint x="484" y="13" as="sourcePoint" />
            <mxPoint x="494" y="13" as="targetPoint" />
          </mxGeometry>
        </mxCell>
        <mxCell id="sO85G-yIJ7SmOh7d06e6-63" value="" style="endArrow=none;html=1;rounded=0;" edge="1" parent="1">
          <mxGeometry width="50" height="50" relative="1" as="geometry">
            <mxPoint x="489" y="20" as="sourcePoint" />
            <mxPoint x="489" y="30" as="targetPoint" />
          </mxGeometry>
        </mxCell>
        <mxCell id="sO85G-yIJ7SmOh7d06e6-64" value="" style="endArrow=none;html=1;rounded=0;" edge="1" parent="1">
          <mxGeometry width="50" height="50" relative="1" as="geometry">
            <mxPoint x="484" y="25" as="sourcePoint" />
            <mxPoint x="494" y="25" as="targetPoint" />
          </mxGeometry>
        </mxCell>
        <mxCell id="sO85G-yIJ7SmOh7d06e6-65" value="" style="rounded=1;whiteSpace=wrap;html=1;fillColor=none;absoluteArcSize=1;arcSize=26;imageHeight=24;" vertex="1" parent="1">
          <mxGeometry x="420" y="42" width="82" height="38" as="geometry" />
        </mxCell>
        <mxCell id="sO85G-yIJ7SmOh7d06e6-66" value="" style="endArrow=none;html=1;rounded=0;" edge="1" parent="1">
          <mxGeometry width="50" height="50" relative="1" as="geometry">
            <mxPoint x="433" y="50" as="sourcePoint" />
            <mxPoint x="433" y="60" as="targetPoint" />
          </mxGeometry>
        </mxCell>
        <mxCell id="sO85G-yIJ7SmOh7d06e6-67" value="" style="endArrow=none;html=1;rounded=0;" edge="1" parent="1">
          <mxGeometry width="50" height="50" relative="1" as="geometry">
            <mxPoint x="428" y="55" as="sourcePoint" />
            <mxPoint x="438" y="55" as="targetPoint" />
          </mxGeometry>
        </mxCell>
        <mxCell id="sO85G-yIJ7SmOh7d06e6-68" value="" style="endArrow=none;html=1;rounded=0;" edge="1" parent="1">
          <mxGeometry width="50" height="50" relative="1" as="geometry">
            <mxPoint x="433" y="62" as="sourcePoint" />
            <mxPoint x="433" y="72" as="targetPoint" />
          </mxGeometry>
        </mxCell>
        <mxCell id="sO85G-yIJ7SmOh7d06e6-69" value="" style="endArrow=none;html=1;rounded=0;" edge="1" parent="1">
          <mxGeometry width="50" height="50" relative="1" as="geometry">
            <mxPoint x="428" y="67" as="sourcePoint" />
            <mxPoint x="438" y="67" as="targetPoint" />
          </mxGeometry>
        </mxCell>
        <mxCell id="sO85G-yIJ7SmOh7d06e6-70" value="" style="endArrow=none;html=1;rounded=0;" edge="1" parent="1">
          <mxGeometry width="50" height="50" relative="1" as="geometry">
            <mxPoint x="489" y="50" as="sourcePoint" />
            <mxPoint x="489" y="60" as="targetPoint" />
          </mxGeometry>
        </mxCell>
        <mxCell id="sO85G-yIJ7SmOh7d06e6-71" value="" style="endArrow=none;html=1;rounded=0;" edge="1" parent="1">
          <mxGeometry width="50" height="50" relative="1" as="geometry">
            <mxPoint x="484" y="55" as="sourcePoint" />
            <mxPoint x="494" y="55" as="targetPoint" />
          </mxGeometry>
        </mxCell>
        <mxCell id="sO85G-yIJ7SmOh7d06e6-72" value="" style="endArrow=none;html=1;rounded=0;" edge="1" parent="1">
          <mxGeometry width="50" height="50" relative="1" as="geometry">
            <mxPoint x="489" y="62" as="sourcePoint" />
            <mxPoint x="489" y="72" as="targetPoint" />
          </mxGeometry>
        </mxCell>
        <mxCell id="sO85G-yIJ7SmOh7d06e6-73" value="" style="endArrow=none;html=1;rounded=0;" edge="1" parent="1">
          <mxGeometry width="50" height="50" relative="1" as="geometry">
            <mxPoint x="484" y="67" as="sourcePoint" />
            <mxPoint x="494" y="67" as="targetPoint" />
          </mxGeometry>
        </mxCell>
        <mxCell id="sO85G-yIJ7SmOh7d06e6-80" value="" style="shape=partialRectangle;whiteSpace=wrap;html=1;top=0;bottom=0;fillColor=none;dashed=1;" vertex="1" parent="1">
          <mxGeometry y="80" width="502" height="50" as="geometry" />
        </mxCell>
        <mxCell id="sO85G-yIJ7SmOh7d06e6-81" value="251" style="text;html=1;align=center;verticalAlign=middle;whiteSpace=wrap;rounded=0;" vertex="1" parent="1">
          <mxGeometry y="90" width="502" height="30" as="geometry" />
        </mxCell>
        <mxCell id="sO85G-yIJ7SmOh7d06e6-82" value="" style="endArrow=classic;startArrow=classic;html=1;rounded=0;exitX=0;exitY=0.75;exitDx=0;exitDy=0;" edge="1" parent="1">
          <mxGeometry width="50" height="50" relative="1" as="geometry">
            <mxPoint y="90" as="sourcePoint" />
            <mxPoint x="502" y="90" as="targetPoint" />
          </mxGeometry>
        </mxCell>
        <mxCell id="sO85G-yIJ7SmOh7d06e6-83" value="" style="shape=partialRectangle;whiteSpace=wrap;html=1;top=0;bottom=0;fillColor=none;dashed=1;direction=south;" vertex="1" parent="1">
          <mxGeometry x="502" width="50" height="80" as="geometry" />
        </mxCell>
        <mxCell id="sO85G-yIJ7SmOh7d06e6-84" value="" style="endArrow=classic;startArrow=classic;html=1;rounded=0;" edge="1" parent="1">
          <mxGeometry width="50" height="50" relative="1" as="geometry">
            <mxPoint x="512" y="80" as="sourcePoint" />
            <mxPoint x="512" as="targetPoint" />
          </mxGeometry>
        </mxCell>
        <mxCell id="sO85G-yIJ7SmOh7d06e6-85" value="40" style="text;html=1;align=center;verticalAlign=middle;whiteSpace=wrap;rounded=0;" vertex="1" parent="1">
          <mxGeometry x="512" width="40" height="80" as="geometry" />
        </mxCell>
      </root>
    </mxGraphModel>
  </diagram>
</mxfile>
